<?xml version="1.0" encoding="UTF-8"?>
<svg width="86px" height="82px" viewBox="0 0 86 82" version="1.1" xmlns="http://www.w3.org/2000/svg" xmlns:xlink="http://www.w3.org/1999/xlink">
    <title>Group</title>
    <g id="Map-+-settings---sources-Copy" stroke="none" stroke-width="1" fill="none" fill-rule="evenodd">
        <g id="Group" fill="#000000">
            <path d="M75.25,5.34794235 C78.2185305,5.34794235 80.625,7.74229769 80.625,10.6958847 L80.625,53.4794235 C80.625,56.4330105 78.2185305,58.8273658 75.25,58.8273658 L61.8125,58.8273658 C58.428859,58.8273658 55.2426846,60.4124334 53.2125,63.1057197 L43,76.6520577 L32.7875,63.1057197 C30.7573154,60.4124334 27.571141,58.8273658 24.1875,58.8273658 L10.75,58.8273658 C7.78146947,58.8273658 5.375,56.4330105 5.375,53.4794235 L5.375,10.6958847 C5.375,7.74229769 7.78146947,5.34794235 10.75,5.34794235 L75.25,5.34794235 Z M10.75,0 C4.81293894,0 0,4.78871069 0,10.6958847 L0,53.4794235 C0,59.3865975 4.81293894,64.1753082 10.75,64.1753082 L24.1875,64.1753082 C25.8793205,64.1753082 27.4724077,64.967842 28.4875,66.3144851 L38.7,79.8608231 C39.7150923,81.2074662 41.3081795,82 43,82 C44.6918205,82 46.2849077,81.2074662 47.3,79.8608231 L57.5125,66.3144851 C58.5275923,64.967842 60.1206795,64.1753082 61.8125,64.1753082 L75.25,64.1753082 C81.1870611,64.1753082 86,59.3865975 86,53.4794235 L86,10.6958847 C86,4.78871069 81.1870611,0 75.25,0 L10.75,0 Z" id="Shape" fill-rule="nonzero"></path>
            <path d="M42.5,54 C42.5,54 58,39.4296248 58,28.3749998 C58,19.8836218 51.0604135,13 42.5,13 C33.9395865,13 27,19.8836218 27,28.3749998 C27,39.4296248 42.5,54 42.5,54" id="Shape" fill-rule="nonzero"></path>
        </g>
    </g>
</svg>