<?xml version="1.0" encoding="UTF-8"?>
<svg width="128px" height="128px" viewBox="0 0 128 128" version="1.1" xmlns="http://www.w3.org/2000/svg" xmlns:xlink="http://www.w3.org/1999/xlink">
    <title>search-heart</title>
    <g id="search-heart" stroke="none" fill="none">
        <g id="Group" stroke-width="1" fill-rule="evenodd" fill="#000000">
            <path d="M103.999198,51.998265 C104.017079,63.061632 100.490131,73.839681 93.9355415,82.7519299 C94.2555305,82.9866093 94.5621868,83.2479567 94.8555101,83.5359723 L125.654459,114.33764 C128.780284,117.461531 128.782075,122.528151 125.658459,125.654252 C122.534843,128.780353 117.46867,128.782144 114.342845,125.658253 L83.543896,94.8565852 C83.2542257,94.5706987 82.9867918,94.2631225 82.7439232,93.9365354 L82.7599227,93.9365354 C63.3580428,108.172305 36.7238116,107.234826 18.3706707,91.6701455 C0.0175297248,76.1054647 -5.25947338,49.9801001 5.6133179,28.5110975 C16.4861092,7.0420949 40.6680066,-4.16143004 64.0739611,1.42615605 C87.4799157,7.01374215 103.994753,27.9325942 103.999198,51.998265 M52.000972,96.0006471 C67.7201219,96.0006471 82.2452155,87.6138407 90.1047905,73.9994563 C97.9643655,60.3850718 97.9643655,43.6114583 90.1047905,29.9970738 C82.2452155,16.3826893 67.7201219,7.99588295 52.000972,7.99588295 C27.7012722,7.99588295 8.00247361,27.6964207 8.00247361,51.998265 C8.00247361,76.3001093 27.7012722,96.0006471 52.000972,96.0006471" id="Shape" fill-rule="nonzero"></path>
        </g>
        <path d="M51,81 C51,81 73,60.3882499 73,44.7499998 C73,32.7378065 63.1502644,23 51,23 C38.8497356,23 29,32.7378065 29,44.7499998 C29,60.3882499 51,81 51,81" id="Shape" fill="#000000" fill-rule="nonzero"></path>
    </g>
</svg>