<?xml version="1.0" encoding="UTF-8"?>
<svg width="118px" height="118px" viewBox="0 0 118 118" version="1.1" xmlns="http://www.w3.org/2000/svg" xmlns:xlink="http://www.w3.org/1999/xlink">
    <g stroke="none" stroke-width="1" fill="none" fill-rule="evenodd">
        <g transform="translate(-2993, -272)" fill="#D73F3F">
            <path d="M3096.27,272 C3100.22,272 3103.92,273.54 3106.71,276.33 C3109.49,279.12 3111.02,282.82 3111.01005,286.76 L3110.98,328.11 L3110.98,333.9 L3110.96,352.57 C3110.96,355.73 3109.91,358.86 3108.02,361.38 C3107.61,361.94 3107.15,362.48 3106.64,362.98 L3083.95,385.68 C3081.15,388.46 3077.45,389.99 3073.52,389.99 L3007.75,389.99 L3007.75,390 C2999.62,390 2993,383.39 2993,375.26 L2993,306.34 C2993,302.4 2994.53,298.7 2997.32,295.91 L3016.92,276.32 C3019.68,273.54 3023.39,272 3027.34,272 L3096.27,272 Z M3051.06,299.19 L3051.05,299.18 C3035.03,299.98 3022.09,313.14 3021.55,329.18 C3021.34,335.37 3022.95,341.17 3025.87,346.09 L3020.35,360.86 C3019.91,362.04 3021.06,363.2 3022.25,362.76 L3037.1,357.2 C3042.01,360.04 3047.77,361.59 3053.91,361.35 C3069.88,360.72 3082.94,347.79 3083.73,331.83 C3084.63,313.4 3069.5,298.27 3051.06,299.19 Z"></path>
        </g>
    </g>
</svg>