<?xml version="1.0" encoding="UTF-8" standalone="no"?>
<svg
   width="80"
   height="48"
   viewBox="0 0 80 48"
   version="1.1"
   id="svg2"
   sodipodi:docname="hot-logo.svg"
   inkscape:version="1.4.2 (unknown)"
   xmlns:inkscape="http://www.inkscape.org/namespaces/inkscape"
   xmlns:sodipodi="http://sodipodi.sourceforge.net/DTD/sodipodi-0.dtd"
   xmlns="http://www.w3.org/2000/svg"
   xmlns:svg="http://www.w3.org/2000/svg">
  <defs
     id="defs2" />
  <sodipodi:namedview
     id="namedview2"
     pagecolor="#ffffff"
     bordercolor="#000000"
     borderopacity="0.25"
     inkscape:showpageshadow="2"
     inkscape:pageopacity="0.0"
     inkscape:pagecheckerboard="0"
     inkscape:deskcolor="#d1d1d1"
     inkscape:zoom="8.5294756"
     inkscape:cx="39.979011"
     inkscape:cy="24.034303"
     inkscape:window-width="2256"
     inkscape:window-height="1432"
     inkscape:window-x="0"
     inkscape:window-y="0"
     inkscape:window-maximized="1"
     inkscape:current-layer="svg2" />
  <path
     d="m 37.02656,20.77496 c 0,-0.484 0.1032,-0.916 0.3096,-1.2888 0.2048,-0.3744 0.4768,-0.6792 0.8144,-0.9224 0.336,-0.2424 0.7144,-0.4264 1.1352,-0.5504 0.4192,-0.1232 0.8416,-0.1856 1.268,-0.1856 0.4248,0 0.8488,0.0624 1.2696,0.1856 0.4184,0.124 0.7968,0.308 1.1328,0.5504 0.3384,0.2432 0.6096,0.548 0.816,0.9224 0.2064,0.3728 0.3088,0.8048 0.3088,1.2888 v 6.372 c 0,0.4944 -0.1024,0.928 -0.3088,1.2952 -0.2064,0.3688 -0.4776,0.672 -0.816,0.9152 -0.336,0.244 -0.7144,0.4288 -1.1328,0.5512 -0.4208,0.1232 -0.8448,0.1848 -1.2696,0.1848 -0.4264,0 -0.8488,-0.0616 -1.268,-0.1848 -0.4208,-0.1224 -0.7992,-0.3072 -1.1352,-0.5512 -0.3376,-0.2432 -0.6096,-0.5464 -0.8144,-0.9152 -0.2064,-0.3672 -0.3096,-0.8008 -0.3096,-1.2952 z m 2.0248,6.3752 c 0,0.4152 0.2312,0.7248 0.5144,0.9216 0.2816,0.1984 0.6152,0.3032 1,0.3032 0.3832,0 0.7184,-0.1048 1.0008,-0.3032 0.2808,-0.1968 0.4416,-0.5064 0.4416,-0.9216 v -6.372 c 0,-0.4168 -0.1608,-0.7256 -0.4416,-0.9224 -0.2824,-0.1976 -0.6176,-0.3304 -1.0008,-0.3304 -0.3848,0 -0.7184,0.1328 -1,0.3304 -0.2832,0.1968 -0.5144,0.5056 -0.5144,0.9224 z"
     id="path1"
     style="fill:#2c3038;fill-rule:evenodd;fill-opacity:1" />
  <polygon
     points="30.152,22.99 30.152,17.815 28.387,17.815 28.387,30.1 30.152,30.1 30.152,24.923 33.379,24.923 33.379,30.1 35.278,30.1 35.278,17.815 33.379,17.815 33.379,22.99 "
     id="polygon1"
     style="fill:#2c3038;fill-rule:evenodd;fill-opacity:1" />
  <polygon
     points="45.426,19.622 48.015,19.622 47.985,30.1 49.847,30.1 49.847,19.622 52.431,19.622 52.431,17.815 45.426,17.815 "
     id="polygon2"
     style="fill:#2c3038;fill-rule:evenodd;fill-opacity:1" />
  <path
     d="m 65.42344,28.7668 h 14.256 L 71.15544,19.1684 62.66904,9.57 54.18104,4e-4 h -42.6416 l 8.4864,9.5696 h -14.288 l 8.488,9.5984 0.0656,0.0648 H 2.4e-4 l 8.5216,9.5984 8.4912,9.5984 8.4872,9.5704 h 42.6416 l -8.4912,-9.5704 -0.0624,-0.0936 h 14.2904 z m -25.584,11.1824 c -9.5208,0 -17.2384,-7.1408 -17.2384,-15.948 0,-8.8104 7.7176,-15.9512 17.2384,-15.9512 9.5216,0 17.24,7.1408 17.24,15.9512 0,8.8072 -7.7184,15.948 -17.24,15.948 z"
     id="path2"
     style="fill:#2c3038;fill-rule:evenodd;fill-opacity:1" />
</svg>
