<?xml version="1.0" encoding="UTF-8" standalone="no"?>
<svg
   width="269px"
   height="68px"
   viewBox="0 0 269 68"
   version="1.1"
   id="svg1"
   sodipodi:docname="hot-logo-svg.svg"
   inkscape:version="1.4.2 (unknown)"
   xmlns:inkscape="http://www.inkscape.org/namespaces/inkscape"
   xmlns:sodipodi="http://sodipodi.sourceforge.net/DTD/sodipodi-0.dtd"
   xmlns:xlink="http://www.w3.org/1999/xlink"
   xmlns="http://www.w3.org/2000/svg"
   xmlns:svg="http://www.w3.org/2000/svg">
  <sodipodi:namedview
     id="namedview1"
     pagecolor="#ffffff"
     bordercolor="#000000"
     borderopacity="0.25"
     inkscape:showpageshadow="2"
     inkscape:pageopacity="0.0"
     inkscape:pagecheckerboard="0"
     inkscape:deskcolor="#d1d1d1"
     inkscape:zoom="3.9832714"
     inkscape:cx="152.26178"
     inkscape:cy="26.360243"
     inkscape:window-width="2256"
     inkscape:window-height="1432"
     inkscape:window-x="0"
     inkscape:window-y="0"
     inkscape:window-maximized="1"
     inkscape:current-layer="g1" />
  <title
     id="title1">Slice 1</title>
  <defs
     id="defs1">
    <polygon
       id="path-1"
       points="0 87 280 87 280 0 0 0" />
    <mask
       id="mask-2"
       fill="#ffffff">
      <use
         xlink:href="#path-1"
         id="use1" />
    </mask>
  </defs>
  <polygon
     id="path4259"
     points="9.7078436,0 9.7078436,7.1172801 1.9695334,7.1172801 1.9695334,0 0,0 0,15.097476 1.9695334,15.097476 1.9695334,8.9012052 9.7078436,8.9012052 9.7078436,15.097476 11.677377,15.097476 11.677377,0 "
     transform="matrix(1,0,0,-1,123.8229,15.4963)"
     style="fill:#525158;fill-rule:nonzero;stroke:none;stroke-width:1;fill-opacity:1" />
  <g
     id="path4267"
     transform="matrix(1,0,0,-1,-4,78)"
     style="fill:none;fill-rule:evenodd;stroke:none;stroke-width:1" />
  <g
     id="g4263"
     mask="url(#mask-2)"
     transform="matrix(1,0,0,-1,-4,78)"
     style="fill:none;fill-rule:evenodd;stroke:none;stroke-width:1">
    <g
       transform="translate(4.5203,10.4889)"
       id="g1">
      <g
         id="g4269"
         stroke-width="1"
         fill="none"
         fill-rule="evenodd"
         transform="translate(137.9926,51.7697)"
         style="fill:#525158;fill-opacity:1">
        <path
           d="M 7.1126356,0.24513029 V 1.8554805 C 6.2715763,0.61636808 5.1318033,0 3.6876671,0 3.0549306,0 2.4589155,0.12539902 1.9095082,0.37123778 1.3551576,0.61636808 0.94345523,0.92738599 0.68075662,1.305 0.4117024,1.6762378 0.22103405,2.1367427 0.11369483,2.6758876 0.04237074,3.0407492 0,3.6153176 0,4.4059691 V 11.182476 H 1.8318285 V 5.1179805 c 0,-0.9698942 0.036015,-1.6223942 0.1073392,-1.9575 C 2.058512,2.6758876 2.3035561,2.2926059 2.673594,2.0113437 3.0436318,1.7357492 3.5082976,1.5983062 4.0577049,1.5983062 c 0.5430517,0 1.0620933,0.137443 1.5394704,0.4250814 0.4837326,0.28693 0.8234048,0.6702118 1.0204287,1.1611808 0.2026734,0.4909691 0.2980076,1.2029805 0.2980076,2.1374511 V 11.182476 H 8.7474401 V 0.24513029 Z"
           id="path4271"
           fill="#d73f3f"
           fill-rule="nonzero"
           style="fill:#525158;fill-opacity:1" />
      </g>
      <g
         id="g4273"
         stroke-width="1"
         fill="none"
         fill-rule="evenodd"
         transform="translate(149.6161,52.0148)"
         style="fill:#525158;fill-opacity:1">
        <path
           d="M 0,0 V 10.937345 H 1.6348045 V 9.4042182 c 0.3347289,0.5327688 0.7880959,0.9642268 1.3488021,1.2929558 0.5607061,0.323771 1.199092,0.485302 1.920807,0.485302 0.7937453,0 1.4504918,-0.167908 1.963884,-0.503013 0.512686,-0.335106 0.8707188,-0.8083636 1.0797478,-1.4126878 0.8530643,1.2809118 1.9631778,1.9157008 3.3289286,1.9157008 1.074098,0 1.897503,-0.299683 2.470214,-0.898339 0.579067,-0.5986565 0.865775,-1.5260425 0.865775,-2.7771989 V 0 H 12.79314 v 6.89057 c 0,0.7417671 -0.06002,1.2745359 -0.17937,1.603974 -0.119344,0.3230619 -0.334022,0.5866124 -0.644035,0.7842752 -0.310719,0.1969544 -0.674401,0.298974 -1.098108,0.298974 -0.75773,0 -1.3841112,-0.2571743 -1.8854984,-0.7658551 C 8.4847415,8.2968811 8.2340479,7.4828502 8.2340479,6.3578013 V 0 H 6.408575 v 7.1059446 c 0,0.8260749 -0.1490038,1.442443 -0.4477175,1.8554805 -0.2980076,0.4130374 -0.7873897,0.6163681 -1.4617907,0.6163681 -0.5190416,0 -0.9907692,-0.137443 -1.4321311,-0.4130375 C 2.6319294,8.8891612 2.314855,8.4881678 2.1185372,7.9617752 1.9215132,7.4346743 1.8254729,6.6688192 1.8254729,5.6748371 V 0 Z"
           id="path4275"
           fill="#d73f3f"
           fill-rule="nonzero"
           style="fill:#525158;fill-opacity:1" />
      </g>
      <g
         id="g4277"
         stroke-width="1"
         fill="none"
         fill-rule="evenodd"
         transform="translate(166.3413,51.7693)"
         style="fill:#525158;fill-opacity:1">
        <path
           d="m 7.5059773,5.0584691 c 0,-0.8204072 -0.1016898,-1.4367753 -0.2980076,-1.8554805 C 6.9509205,2.6581759 6.5512232,2.2330945 6.0025221,1.9220766 5.4538209,1.6103502 4.8274401,1.4488192 4.1226734,1.4488192 c -0.70971,0 -1.2527617,0.1679072 -1.6227995,0.4966368 -0.3700378,0.3294381 -0.5487011,0.7424756 -0.5487011,1.2334447 0,0.3230618 0.083329,0.616368 0.2506935,0.8862947 0.1666583,0.2628421 0.4117024,0.4605049 0.721715,0.5979479 0.3100127,0.1381515 0.8410593,0.2635505 1.59314,0.3712378 1.3304414,0.1919951 2.3212106,0.4250814 2.989256,0.7006759 z M 9.4691551,1.5621743 C 9.3914754,2.0177199 9.3498108,3.1073453 9.3498108,4.8310505 V 7.302899 c 0,0.8204072 -0.02966,1.3893078 -0.089685,1.706702 -0.1073392,0.5086808 -0.2980076,0.927386 -0.5663556,1.262492 -0.2747037,0.335814 -0.6984111,0.6107 -1.2711223,0.826075 -0.5727113,0.221751 -1.324792,0.329438 -2.2435309,0.329438 -0.930744,0 -1.7421438,-0.125399 -2.4462043,-0.382573 C 2.0288525,10.78715 1.4858008,10.422288 1.1157629,9.9433632 0.74572509,9.4644381 0.47737705,8.8416938 0.31566204,8.0637948 L 2.1001765,7.817956 c 0.197024,0.7722313 0.5013872,1.317044 0.906734,1.6223942 0.4117024,0.3053501 1.0444388,0.4548371 1.9095082,0.4548371 0.9187389,0 1.6107944,-0.2097068 2.0761664,-0.6284121 0.3467339,-0.3053501 0.5197478,-0.8381188 0.5197478,-1.5926384 0,-0.071555 0,-0.2330863 -0.00636,-0.4845928 C 6.8082724,6.9380375 5.722169,6.7283306 4.2420176,6.5490879 3.5203027,6.4591124 2.977251,6.3698453 2.6192182,6.2734935 2.1298361,6.1360505 1.6948298,5.9327199 1.3007818,5.6635016 0.91308953,5.3935749 0.59672131,5.0407573 0.35803279,4.5979642 0.11934426,4.1544625 0,3.6634935 0,3.1307248 0,2.2153827 0.31566204,1.4672394 0.9547541,0.88062704 1.5867844,0.29330619 2.4998739,0 3.6869609,0 4.4030265,0 5.0774275,0.11973127 5.6981589,0.35919381 6.3245397,0.59865635 6.9805801,1.0116938 7.6549811,1.5983062 7.7086507,1.0839577 7.8343506,0.62912052 8.0193695,0.24583876 H 9.9288777 C 9.701488,0.66454397 9.5468348,1.1016694 9.4691551,1.5621743"
           id="path4279"
           fill="#d73f3f"
           fill-rule="nonzero"
           style="fill:#525158;fill-opacity:1" />
      </g>
      <g
         id="g4281"
         stroke-width="1"
         fill="none"
         fill-rule="evenodd"
         transform="translate(178.537,52.0148)"
         style="fill:#525158;fill-opacity:1">
        <path
           d="M 0,0 V 10.937345 H 1.6468096 V 9.3801303 c 0.7880958,1.2036887 1.9335183,1.8023457 3.4306179,1.8023457 0.6510971,0 1.2478184,-0.114064 1.7908701,-0.353526 C 7.4169987,10.595863 7.8223455,10.284137 8.0913998,9.8951873 8.3653972,9.5119055 8.5567717,9.0570684 8.664111,8.5306759 8.7297856,8.1835261 8.7658008,7.5848697 8.7658008,6.7290391 V 0 H 6.9332661 v 6.6567752 c 0,0.7538111 -0.071324,1.317044 -0.209029,1.6939496 C 6.5815889,8.7219625 6.3308953,9.0209365 5.9672131,9.2426873 5.6028247,9.4644381 5.1791173,9.5777932 4.6904414,9.5777932 3.9143506,9.5777932 3.2399496,9.3269951 2.673594,8.8296498 2.1121816,8.3266368 1.8254729,7.3751629 1.8254729,5.9745195 V 0 Z"
           id="path4283"
           fill="#d73f3f"
           fill-rule="nonzero"
           style="fill:#525158;fill-opacity:1" />
      </g>
      <polygon
         id="path4285"
         fill="#d73f3f"
         fill-rule="nonzero"
         points="190.12459,67.111857 191.95077,67.111857 191.95077,64.980782 190.12459,64.980782 "
         style="fill:#525158;fill-opacity:1" />
      <polygon
         id="path4287"
         fill="#d73f3f"
         fill-rule="nonzero"
         points="190.12459,62.951726 191.95077,62.951726 191.95077,52.014381 190.12459,52.014381 "
         style="fill:#525158;fill-opacity:1" />
      <g
         id="g4289"
         stroke-width="1"
         fill="none"
         fill-rule="evenodd"
         transform="translate(193.7404,51.8716)"
         style="fill:#525158;fill-opacity:1">
        <path
           d="M 4.9940984,1.8016368 5.2624464,0.1671987 C 4.744111,0.05384365 4.2843884,0 3.8783354,0 3.2159395,0 2.7032535,0.1076873 2.3332156,0.31668567 1.9688272,0.53206026 1.7124842,0.81403094 1.5634804,1.1611808 1.4144767,1.5083306 1.3424464,2.232386 1.3424464,3.3460993 V 9.6373046 H 0 v 1.4431514 h 1.3424464 v 2.712728 l 1.814174,1.104503 v -3.817231 h 1.837478 V 9.6373046 H 3.1566204 V 3.2440798 c 0,-0.527101 0.036015,-0.8678746 0.095334,-1.0173616 C 3.3176293,2.0708551 3.4249685,1.9511238 3.5683228,1.8611482 3.7173266,1.7775489 3.92,1.729373 4.1947037,1.729373 c 0.2026733,0 0.4717276,0.024088 0.7993947,0.072264"
           id="path4291"
           fill="#d73f3f"
           fill-rule="nonzero"
           style="fill:#525158;fill-opacity:1" />
      </g>
      <g
         id="g4293"
         stroke-width="1"
         fill="none"
         fill-rule="evenodd"
         transform="translate(199.8923,51.7693)"
         style="fill:#525158;fill-opacity:1">
        <path
           d="m 7.5059773,5.0584691 c 0,-0.8204072 -0.095334,-1.4367753 -0.2923581,-1.8554805 C 6.9572762,2.6581759 6.5512232,2.2330945 6.0025221,1.9220766 5.4538209,1.6103502 4.8274401,1.4488192 4.1226734,1.4488192 c -0.70971,0 -1.2471122,0.1679072 -1.6171501,0.4966368 -0.3693316,0.3294381 -0.5543505,0.7424756 -0.5543505,1.2334447 0,0.3230618 0.083329,0.616368 0.256343,0.8862947 0.1673644,0.2628421 0.4060529,0.4605049 0.7160655,0.5979479 0.3163683,0.1381515 0.8474149,0.2635505 1.5987894,0.3712378 1.324792,0.1919951 2.3219168,0.4250814 2.9836066,0.7006759 z M 9.4691551,1.5621743 C 9.3914754,2.0177199 9.3554603,3.1073453 9.3554603,4.8310505 V 7.302899 c 0,0.8204072 -0.02966,1.3893078 -0.088979,1.706702 -0.1136948,0.5086808 -0.2987137,0.927386 -0.5727112,1.262492 -0.2683481,0.335814 -0.6920555,0.6107 -1.2711223,0.826075 -0.5727113,0.221751 -1.3184363,0.329438 -2.2435309,0.329438 -0.9243884,0 -1.7421438,-0.125399 -2.4462043,-0.382573 C 2.0288525,10.78715 1.4914502,10.422288 1.1214124,9.9433632 0.74572509,9.4644381 0.47737705,8.8416938 0.31636822,8.0637948 L 2.1065322,7.817956 C 2.3028499,8.5901873 2.6015637,9.135 3.0132661,9.4403502 c 0.4117024,0.3053501 1.0437326,0.4548371 1.9031526,0.4548371 0.9187389,0 1.61715,-0.2097068 2.082522,-0.6284121 0.3460278,-0.3053501 0.5190416,-0.8381188 0.5190416,-1.5926384 0,-0.071555 -0.00565,-0.2330863 -0.012005,-0.4845928 C 6.8082724,6.9380375 5.722169,6.7283306 4.2483733,6.5490879 3.5203027,6.4591124 2.9836066,6.3698453 2.6192182,6.2734935 2.1361917,6.1360505 1.6948298,5.9327199 1.3064313,5.6635016 0.91873897,5.3935749 0.60237074,5.0407573 0.36368222,4.5979642 0.11934426,4.1544625 0,3.6634935 0,3.1307248 0,2.2153827 0.32201765,1.4672394 0.9547541,0.88062704 1.59314,0.29330619 2.5055233,0 3.6876671,0 4.4030265,0 5.0781337,0.11973127 5.7038083,0.35919381 6.3308953,0.59865635 6.9812862,1.0116938 7.6613367,1.5983062 7.7150063,1.0839577 7.8343506,0.62912052 8.0250189,0.24583876 H 9.9345271 C 9.701488,0.66454397 9.5468348,1.1016694 9.4691551,1.5621743"
           id="path4295"
           fill="#d73f3f"
           fill-rule="nonzero"
           style="fill:#525158;fill-opacity:1" />
      </g>
      <g
         id="g4297"
         stroke-width="1"
         fill="none"
         fill-rule="evenodd"
         transform="translate(212.0705,52.0148)"
         style="fill:#525158;fill-opacity:1">
        <path
           d="M 0,0 V 10.937345 H 1.6468096 V 9.2788192 c 0.4173518,0.7778988 0.8057503,1.2872878 1.1630769,1.5380868 0.3523834,0.245838 0.7464313,0.36557 1.1701387,0.36557 0.6143758,0 1.2414628,-0.197663 1.8791425,-0.592989 L 5.2327869,8.8657818 C 4.7850694,9.135 4.338058,9.2667752 3.8903405,9.2667752 3.489937,9.2667752 3.1326103,9.147044 2.8098865,8.9012052 2.4942245,8.6624511 2.267541,8.3209691 2.1305422,7.8902199 1.9271627,7.2313437 1.8254729,6.5072883 1.8254729,5.7286808 V 0 Z"
           id="path4299"
           fill="#d73f3f"
           fill-rule="nonzero"
           style="fill:#525158;fill-opacity:1" />
      </g>
      <polygon
         id="path4301"
         fill="#d73f3f"
         fill-rule="nonzero"
         points="219.04545,67.111857 220.87728,67.111857 220.87728,64.980782 219.04545,64.980782 "
         style="fill:#525158;fill-opacity:1" />
      <polygon
         id="path4303"
         fill="#d73f3f"
         fill-rule="nonzero"
         points="219.04545,62.951726 220.87728,62.951726 220.87728,52.014381 219.04545,52.014381 "
         style="fill:#525158;fill-opacity:1" />
      <g
         id="g4305"
         stroke-width="1"
         fill="none"
         fill-rule="evenodd"
         transform="translate(223.0493,51.7693)"
         style="fill:#525158;fill-opacity:1">
        <path
           d="m 7.5059773,5.0584691 c 0,-0.8204072 -0.1016898,-1.4367753 -0.2980076,-1.8554805 C 6.9516267,2.6581759 6.5512232,2.2330945 6.0025221,1.9220766 5.4538209,1.6103502 4.8267339,1.4488192 4.1233796,1.4488192 c -0.7104162,0 -1.2527617,0.1679072 -1.6235057,0.4966368 -0.3636822,0.3294381 -0.5487011,0.7424756 -0.5487011,1.2334447 0,0.3230618 0.083329,0.616368 0.2506935,0.8862947 0.1723077,0.2628421 0.4109963,0.4605049 0.721715,0.5979479 0.3100127,0.1381515 0.8410593,0.2635505 1.5938462,0.3712378 1.3297352,0.1919951 2.32686,0.4250814 2.9885498,0.7006759 z M 9.4691551,1.5621743 C 9.3914754,2.0177199 9.3498108,3.1073453 9.3498108,4.8310505 V 7.302899 c 0,0.8204072 -0.02966,1.3893078 -0.089685,1.706702 -0.1073392,0.5086808 -0.2980076,0.927386 -0.5663556,1.262492 -0.2747037,0.335814 -0.6927617,0.6107 -1.2711223,0.826075 -0.5727113,0.221751 -1.324792,0.329438 -2.2435309,0.329438 -0.930744,0 -1.74285,-0.125399 -2.4462043,-0.382573 C 2.0288525,10.78715 1.4914502,10.422288 1.1157629,9.9433632 0.74572509,9.4644381 0.47737705,8.8416938 0.31566204,8.0637948 L 2.1001765,7.817956 C 2.2972005,8.5901873 2.6015637,9.135 3.0132661,9.4403502 3.419319,9.7457003 4.0569987,9.8951873 4.9164187,9.8951873 c 0.9194451,0 1.6107944,-0.2097068 2.082522,-0.6284121 0.3403783,-0.3053501 0.5133922,-0.8381188 0.5133922,-1.5926384 0,-0.071555 0,-0.2330863 -0.00636,-0.4845928 C 6.8082724,6.9380375 5.722169,6.7283306 4.2427238,6.5490879 3.5203027,6.4591124 2.977251,6.3698453 2.6192182,6.2734935 2.1305422,6.1360505 1.6948298,5.9327199 1.3071374,5.6635016 0.91308953,5.3935749 0.60307692,5.0407573 0.35803279,4.5979642 0.11934426,4.1544625 0,3.6634935 0,3.1307248 0,2.2153827 0.31566204,1.4672394 0.9547541,0.88062704 1.59314,0.29330619 2.4998739,0 3.6876671,0 4.4030265,0 5.0781337,0.11973127 5.7038083,0.35919381 6.3308953,0.59865635 6.9812862,1.0116938 7.6556873,1.5983062 7.7086507,1.0839577 7.8343506,0.62912052 8.0250189,0.24583876 H 9.9288777 C 9.701488,0.66454397 9.5468348,1.1016694 9.4691551,1.5621743"
           id="path4307"
           fill="#d73f3f"
           fill-rule="nonzero"
           style="fill:#525158;fill-opacity:1" />
      </g>
      <g
         id="g4309"
         stroke-width="1"
         fill="none"
         fill-rule="evenodd"
         transform="translate(235.2455,52.0148)"
         style="fill:#525158;fill-opacity:1">
        <path
           d="M 0,0 V 10.937345 H 1.6468096 V 9.3801303 c 0.7937452,1.2036887 1.9328121,1.8023457 3.4306179,1.8023457 0.6503909,0 1.2471122,-0.114064 1.7901639,-0.353526 C 7.4162926,10.595863 7.8223455,10.284137 8.0970492,9.8951873 8.3653972,9.5119055 8.5560656,9.0570684 8.664111,8.5306759 8.7290795,8.1835261 8.7650946,7.5848697 8.7650946,6.7290391 V 0 H 6.9389155 v 6.6567752 c 0,0.7538111 -0.071324,1.317044 -0.2146784,1.6939496 C 6.5808827,8.7219625 6.3308953,9.0209365 5.9665069,9.2426873 5.6028247,9.4644381 5.1791173,9.5777932 4.6897352,9.5777932 3.9143506,9.5777932 3.2399496,9.3269951 2.6792434,8.8296498 2.1121816,8.3266368 1.8254729,7.3751629 1.8254729,5.9745195 V 0 Z"
           id="path4311"
           fill="#d73f3f"
           fill-rule="nonzero"
           style="fill:#525158;fill-opacity:1" />
      </g>
      <g
         id="g4313"
         stroke-width="1"
         fill="none"
         fill-rule="evenodd"
         transform="translate(123.1409,25.8774)"
         style="fill:#525158;fill-opacity:1">
        <path
           d="M 10.769937,3.2986319 C 9.8095334,2.2387622 8.5920807,1.7123697 7.1062799,1.7123697 c -1.4561412,0 -2.6615888,0.5207248 -3.6276418,1.5685505 -0.9667592,1.0471173 -1.4497856,2.4782247 -1.4497856,4.2975733 0,2.2748941 0.5070365,3.8972885 1.5091046,4.8671825 1.0084237,0.969186 2.2075158,1.460155 3.5979824,1.460155 0.9844136,0 1.8678436,-0.257175 2.6615889,-0.760188 0.7873896,-0.503013 1.3841106,-1.215024 1.7958136,-2.131075 0.405347,-0.915342 0.614375,-1.9872553 0.614375,-3.2206999 0,-1.9390798 -0.483026,-3.4417427 -1.43778,-4.4952362 m 2.601564,8.5420111 c -0.579067,1.191645 -1.420126,2.119031 -2.52459,2.783575 -1.1037584,0.664544 -2.344515,0.99965 -3.716621,0.99965 -2.1001765,0 -3.8133669,-0.712011 -5.1374527,-2.125407 C 0.66239596,12.080106 0,10.116938 0,7.6146254 0,6.2855375 0.28600252,5.0287134 0.85306431,3.8434446 1.4201261,2.6517997 2.2548298,1.7180375 3.3592938,1.0294055 4.4630517,0.34714984 5.7158134,0 7.118285,0 c 1.2944262,0 2.4998739,0.31172638 3.615637,0.93447068 1.115763,0.62203582 1.980832,1.53241862 2.589559,2.74106682 0.608726,1.2093566 0.913089,2.5802443 0.913089,4.1126628 0,1.5083306 -0.286709,2.8615067 -0.865069,4.0524427"
           id="path4315"
           fill="#d73f3f"
           fill-rule="nonzero"
           style="fill:#525158;fill-opacity:1" />
      </g>
      <g
         id="g4317"
         stroke-width="1"
         fill="none"
         fill-rule="evenodd"
         transform="translate(139.675,21.9446)"
         style="fill:#525158;fill-opacity:1">
        <path
           d="M 6.6225473,6.512956 C 6.0441866,5.8186564 5.3521311,5.4715065 4.5400252,5.4715065 c -0.7993947,0 -1.4794451,0.3351059 -2.0401513,1.0053176 C 1.9328121,7.153412 1.652459,8.1891938 1.652459,9.5962134 c 0,1.4063106 0.2980076,2.4838926 0.9010845,3.2199916 0.5967213,0.736808 1.2887768,1.107337 2.0641614,1.107337 0.7873897,0 1.4617907,-0.347149 2.0288525,-1.041449 0.5663556,-0.6943 0.8474149,-1.735749 0.8474149,-3.1307249 0,-1.4601547 -0.2923582,-2.5377362 -0.871425,-3.2384121 m 2.2018663,6.106295 c -0.3580328,0.87921 -0.8890794,1.555798 -1.59314,2.034723 -0.7040605,0.478925 -1.5154602,0.718388 -2.4405548,0.718388 -0.7040605,0 -1.3007818,-0.137443 -1.7958134,-0.413038 -0.4950315,-0.281262 -0.9363934,-0.6943 -1.3304413,-1.251156 v 1.419063 H 0 V 0 h 1.8254729 v 5.3220195 c 0.3100126,-0.3953257 0.70971,-0.7247638 1.1934426,-0.9876058 0.4830265,-0.2578828 1.0317276,-0.389658 1.640454,-0.389658 0.8354098,0 1.6291551,0.2394625 2.3812358,0.7127199 0.7577301,0.478925 1.3304414,1.1668485 1.7301387,2.0651873 0.3940479,0.8919625 0.5903657,1.9036563 0.5903657,3.0166612 0,1.0478259 -0.1786633,2.0056759 -0.5366961,2.8799269"
           id="path4319"
           fill="#d73f3f"
           fill-rule="nonzero"
           style="fill:#525158;fill-opacity:1" />
      </g>
      <g
         id="g4321"
         stroke-width="1"
         fill="none"
         fill-rule="evenodd"
         transform="translate(150.6418,25.8896)"
         style="fill:#525158;fill-opacity:1">
        <path
           d="M 1.9928373,6.7644625 C 2.0521564,7.7223127 2.3685246,8.4825 2.9412358,9.0514007 3.513947,9.6195928 4.2180076,9.9072313 5.059773,9.9072313 c 0.9243884,0 1.6828247,-0.3591938 2.2611854,-1.0719137 C 7.7030013,8.3748127 7.9296847,7.6861808 8.0130139,6.7644625 Z m 7.9473392,-1.030114 c 0,1.8080131 -0.4533669,3.2086564 -1.3664564,4.2026385 -0.918739,0.993274 -2.093821,1.490619 -3.5379572,1.490619 -1.4858007,0 -2.6968978,-0.503013 -3.6339975,-1.5203747 C 0.46537201,8.8898697 0,7.46443 0,5.6209935 0,3.8427362 0.45901639,2.460513 1.384111,1.4785749 2.3092056,0.49096906 3.5619672,0 5.1374527,0 6.3902144,0 7.421942,0.31172638 8.2283985,0.92809446 9.0334426,1.5444625 9.5828499,2.4123371 9.8808575,3.5317182 L 7.9953594,3.7711808 C 7.7150063,2.9869055 7.3386129,2.4187134 6.8675914,2.0588111 6.3902144,1.7003257 5.8175031,1.5260423 5.1494578,1.5260423 c -0.9010845,0 -1.6531652,0.3173942 -2.2562422,0.9578502 C 2.2908449,3.1186808 1.9568222,4.040399 1.8911475,5.2440879 h 8.0433796 c 0.00565,0.2153746 0.00565,0.3832818 0.00565,0.4902606"
           id="path4323"
           fill="#d73f3f"
           fill-rule="nonzero"
           style="fill:#525158;fill-opacity:1" />
      </g>
      <g
         id="g4325"
         stroke-width="1"
         fill="none"
         fill-rule="evenodd"
         transform="translate(162.8255,26.1349)"
         style="fill:#525158;fill-opacity:1">
        <path
           d="M 0,0 V 10.936637 H 1.6468096 V 9.3801303 c 0.7937452,1.2029807 1.9391677,1.8023457 3.4306179,1.8023457 0.6503909,0 1.2534678,-0.114064 1.7965195,-0.353526 C 7.4169987,10.595863 7.8287011,10.284137 8.0970492,9.8951873 8.3653972,9.5119055 8.5567717,9.0570684 8.664111,8.5306759 8.7354351,8.1828176 8.7650946,7.5848697 8.7650946,6.7283306 V 0 H 6.9396217 v 6.6567752 c 0,0.7538111 -0.071324,1.317044 -0.2153846,1.6939496 C 6.5815889,8.7219625 6.3308953,9.0209365 5.9672131,9.2426873 5.6084741,9.4637296 5.1854729,9.5777932 4.6960908,9.5777932 3.9143506,9.5777932 3.2463052,9.3262866 2.6792434,8.8296498 2.1121816,8.3266368 1.8318285,7.3751629 1.8318285,5.9745195 V 0 Z"
           id="path4327"
           fill="#d73f3f"
           fill-rule="nonzero"
           style="fill:#525158;fill-opacity:1" />
      </g>
      <g
         id="g4329"
         stroke-width="1"
         fill="none"
         fill-rule="evenodd"
         transform="translate(173.9717,25.8773)"
         style="fill:#525158;fill-opacity:1">
        <path
           d="M 0,5.1066449 1.8551324,5.2738436 C 1.9448171,4.5200326 2.1481967,3.8972883 2.4702144,3.4126954 2.792232,2.9337704 3.2936192,2.5384446 3.9680202,2.2394707 4.6480706,1.9397883 5.4058008,1.7959691 6.2532156,1.7959691 c 0.7513746,0 1.4137705,0.1076873 1.9928374,0.3351058 0.5727112,0.2281271 1.0020681,0.539145 1.2831273,0.9344707 0.2803531,0.3946173 0.4230013,0.8260749 0.4230013,1.292956 0,0.4725489 -0.1369988,0.8855863 -0.4053468,1.2391124 C 9.2721312,5.9504316 8.8251198,6.250114 8.2043884,6.4895765 7.804691,6.6447313 6.921261,6.89057 5.5548045,7.2256759 4.1826986,7.5607818 3.2279445,7.8717997 2.6785372,8.1651059 1.9688272,8.5427199 1.4377806,9.0152687 1.0917528,9.5721254 0.73936948,10.13465 0.56706179,10.757394 0.56706179,11.451694 c 0,0.760187 0.21467844,1.472907 0.63838591,2.137451 0.4293568,0.664544 1.0500882,1.166849 1.8671374,1.508331 0.8234048,0.347149 1.7308449,0.515057 2.732913,0.515057 1.1037579,0 2.0768726,-0.179952 2.9179319,-0.539145 0.8474149,-0.359194 1.49145,-0.891963 1.944817,-1.59193 0.454073,-0.700676 0.698411,-1.490619 0.73372,-2.376914 L 9.5108197,10.960725 c -0.1009836,0.952182 -0.4413619,1.67057 -1.0260782,2.16083 -0.5910719,0.485302 -1.4497856,0.730432 -2.5959143,0.730432 -1.1934426,0 -2.0585119,-0.221042 -2.6072131,-0.663835 -0.5430517,-0.443502 -0.8170492,-0.976271 -0.8170492,-1.599015 0,-0.544104 0.1963178,-0.993274 0.5783607,-1.340424 C 3.4249685,9.8951873 4.4150315,9.5359935 6.0145271,9.1711319 7.6133165,8.8062704 8.7170744,8.4825 9.3081463,8.2069055 10.179571,7.8066205 10.817957,7.2915635 11.22966,6.6688192 c 0.411702,-0.6220358 0.620025,-1.3347557 0.620025,-2.1487866 0,-0.801987 -0.226684,-1.5565065 -0.680051,-2.2685179 C 10.716267,1.5387948 10.065876,0.98831433 9.2128121,0.5929886 8.3653972,0.19766287 7.4106431,0 6.3421942,0 5.000454,0 3.8663304,0.19766287 2.9595965,0.59936482 2.0465069,0.99398208 1.3304414,1.5983062 0.81775536,2.3946254 0.29800757,3.1973209 0.02401009,4.1013274 0,5.1066449"
           id="path4331"
           fill="#d73f3f"
           fill-rule="nonzero"
           style="fill:#525158;fill-opacity:1" />
      </g>
      <g
         id="g4333"
         stroke-width="1"
         fill="none"
         fill-rule="evenodd"
         transform="translate(187.2955,25.9917)"
         style="fill:#525158;fill-opacity:1">
        <path
           d="M 4.9940984,1.8016368 5.256797,0.1671987 C 4.7434048,0.05384365 4.2843884,0 3.8783354,0 3.2159395,0 2.6968979,0.10697883 2.3325095,0.31668567 1.9688272,0.53206026 1.7124842,0.81332248 1.5634804,1.1611808 1.4137705,1.5083306 1.336797,2.232386 1.336797,3.3460993 V 9.6373046 H 0 v 1.4424434 h 1.336797 v 2.712019 l 1.8191173,1.107337 V 11.079748 H 4.9940984 V 9.6373046 H 3.1559143 V 3.2440798 c 0,-0.527101 0.030366,-0.8678746 0.09604,-1.0173616 C 3.3176293,2.0708551 3.4249685,1.9511238 3.5676167,1.8611482 3.7116772,1.7775489 3.92,1.729373 4.1947037,1.729373 c 0.2026733,0 0.465372,0.024088 0.7993947,0.072264"
           id="path4335"
           fill="#d73f3f"
           fill-rule="nonzero"
           style="fill:#525158;fill-opacity:1" />
      </g>
      <g
         id="g4337"
         stroke-width="1"
         fill="none"
         fill-rule="evenodd"
         transform="translate(194.0499,26.1349)"
         style="fill:#525158;fill-opacity:1">
        <path
           d="M 0,0 V 10.936637 H 1.6411601 V 9.2788192 c 0.4230013,0.7778988 0.8113998,1.2865798 1.163077,1.5380868 0.3580328,0.245838 0.7457251,0.36557 1.1757881,0.36557 0.6143758,0 1.2407566,-0.197663 1.8791425,-0.592989 L 5.2264313,8.8657818 C 4.7794199,9.135 4.3317024,9.2667752 3.8839849,9.2667752 3.4849937,9.2667752 3.1262547,9.147044 2.8098865,8.9012052 2.4942245,8.6624511 2.267541,8.3209691 2.1305422,7.8895114 1.9271627,7.2313437 1.8254729,6.5072883 1.8254729,5.7286808 V 0 Z"
           id="path4339"
           fill="#d73f3f"
           fill-rule="nonzero"
           style="fill:#525158;fill-opacity:1" />
      </g>
      <g
         id="g4341"
         stroke-width="1"
         fill="none"
         fill-rule="evenodd"
         transform="translate(200.4047,25.8896)"
         style="fill:#525158;fill-opacity:1">
        <path
           d="M 1.9928373,6.7644625 C 2.0521564,7.7223127 2.3685246,8.4825 2.9412358,9.0514007 3.513947,9.6195928 4.2180076,9.9072313 5.059773,9.9072313 c 0.9243884,0 1.6828247,-0.3591938 2.2611854,-1.0719137 C 7.7022951,8.3748127 7.9296847,7.6861808 8.0130139,6.7644625 Z m 7.9473392,-1.030114 c 0,1.8080131 -0.4533669,3.2086564 -1.3721059,4.2026385 -0.9130895,0.993274 -2.0881715,1.490619 -3.5323077,1.490619 -1.4858007,0 -2.7032534,-0.503013 -3.6332913,-1.5203747 C 0.46537201,8.8898697 0,7.46443 0,5.6209935 0,3.8427362 0.45901639,2.460513 1.384111,1.4785749 2.3092056,0.49096906 3.5619672,0 5.1374527,0 6.3902144,0 7.4226482,0.31172638 8.2283985,0.92809446 9.0334426,1.5444625 9.5828499,2.4123371 9.8808575,3.5317182 L 7.98971,3.7711808 C 7.7150063,2.9869055 7.3386129,2.4187134 6.8675914,2.0588111 6.3902144,1.7003257 5.8175031,1.5260423 5.1494578,1.5260423 c -0.9010845,0 -1.6531652,0.3173942 -2.255536,0.9578502 C 2.2908449,3.1186808 1.9568222,4.040399 1.8911475,5.2440879 h 8.0433796 c 0.00565,0.2153746 0.00565,0.3832818 0.00565,0.4902606"
           id="path4343"
           fill="#d73f3f"
           fill-rule="nonzero"
           style="fill:#525158;fill-opacity:1" />
      </g>
      <g
         id="g4345"
         stroke-width="1"
         fill="none"
         fill-rule="evenodd"
         transform="translate(211.9804,25.8896)"
         style="fill:#525158;fill-opacity:1">
        <path
           d="M 1.9921312,6.7644625 C 2.0521564,7.7223127 2.3685246,8.4825 2.9412358,9.0514007 3.513947,9.6195928 4.2180076,9.9072313 5.059773,9.9072313 c 0.9243884,0 1.6828247,-0.3591938 2.2611854,-1.0719137 C 7.7030013,8.3748127 7.9353342,7.6861808 8.0130139,6.7644625 Z m 7.954401,-1.030114 c 0,1.8080131 -0.4597226,3.2086564 -1.3728121,4.2026385 -0.9130896,0.993274 -2.0945272,1.490619 -3.5323077,1.490619 -1.4914502,0 -2.7032535,-0.503013 -3.639647,-1.5203747 C 0.47102144,8.8898697 0,7.46443 0,5.6209935 0,3.8427362 0.46537201,2.460513 1.3897604,1.4785749 2.314855,0.49096906 3.5619672,0 5.1431021,0 6.3902144,0 7.421942,0.31172638 8.2276923,0.92809446 9.0334426,1.5444625 9.5821438,2.4123371 9.8808575,3.5317182 L 7.9953594,3.7711808 C 7.7150063,2.9869055 7.3386129,2.4187134 6.8668852,2.0588111 6.3902144,1.7003257 5.8231526,1.5260423 5.1494578,1.5260423 c -0.9017907,0 -1.6531652,0.3173942 -2.2562422,0.9578502 C 2.2908449,3.1186808 1.9568222,4.040399 1.8904414,5.2440879 h 8.0440857 c 0.00565,0.2153746 0.012005,0.3832818 0.012005,0.4902606"
           id="path4347"
           fill="#d73f3f"
           fill-rule="nonzero"
           style="fill:#525158;fill-opacity:1" />
      </g>
      <g
         id="g4349"
         stroke-width="1"
         fill="none"
         fill-rule="evenodd"
         transform="translate(223.1618,25.9917)"
         style="fill:#525158;fill-opacity:1">
        <path
           d="M 4.9997478,1.8016368 5.2624464,0.1671987 C 4.7497604,0.05384365 4.2836822,0 3.8783354,0 3.2159395,0 2.7025473,0.10697883 2.3381589,0.31668567 1.9688272,0.53206026 1.7124842,0.81332248 1.5634804,1.1611808 1.4137705,1.5083306 1.3424464,2.232386 1.3424464,3.3460993 V 9.6373046 H 0 v 1.4424434 h 1.3424464 v 2.712019 l 1.8191173,1.107337 V 11.079748 H 4.9997478 V 9.6373046 H 3.1615637 V 3.2440798 c 0,-0.527101 0.030366,-0.8678746 0.09604,-1.0173616 0.065675,-0.1558631 0.1673645,-0.2755944 0.3107188,-0.36557 0.1490038,-0.083599 0.3573266,-0.1317752 0.6256747,-0.1317752 0.2033795,0 0.4717276,0.024088 0.8057503,0.072264"
           id="path4351"
           fill="#d73f3f"
           fill-rule="nonzero"
           style="fill:#525158;fill-opacity:1" />
      </g>
      <g
         id="g4353"
         stroke-width="1"
         fill="none"
         fill-rule="evenodd"
         transform="translate(230.107,26.1349)"
         style="fill:#525158;fill-opacity:1">
        <path
           d="M 0,0 V 15.097476 H 2.9652459 L 6.4919042,4.4059691 C 6.8139218,3.411987 7.0526103,2.6702199 7.2016141,2.1728746 7.374628,2.7240635 7.6373266,3.5317182 7.9953594,4.5915879 L 11.557327,15.097476 H 14.21256 V 0 H 12.309407 V 12.636962 L 7.9840605,0 H 6.2051955 L 1.9031526,12.852337 V 0 Z"
           id="path4355"
           fill="#d73f3f"
           fill-rule="nonzero"
           style="fill:#525158;fill-opacity:1" />
      </g>
      <g
         id="g4357"
         stroke-width="1"
         fill="none"
         fill-rule="evenodd"
         transform="translate(246.665,25.8894)"
         style="fill:#525158;fill-opacity:1">
        <path
           d="m 7.5059773,5.0584691 c 0,-0.8204072 -0.1016898,-1.4367753 -0.2980076,-1.8554805 C 6.9516267,2.6581759 6.5512232,2.2330945 6.0025221,1.9213681 5.4538209,1.6103502 4.8267339,1.4488192 4.1226734,1.4488192 c -0.70971,0 -1.2527617,0.1679072 -1.6227995,0.4966368 -0.3693317,0.3294381 -0.5487011,0.7424756 -0.5487011,1.2334447 0,0.3230618 0.083329,0.616368 0.2499874,0.8855863 0.1680706,0.2635505 0.4117024,0.4612133 0.7224211,0.5986563 0.3100127,0.1381515 0.8410593,0.2635505 1.59314,0.3712378 1.3304414,0.1912867 2.3212106,0.4250814 2.989256,0.7006759 z M 9.4691551,1.5621743 C 9.3914754,2.0177199 9.3498108,3.1073453 9.3498108,4.8310505 V 7.302899 c 0,0.8204072 -0.030366,1.3893078 -0.089685,1.706702 -0.1073392,0.5086808 -0.2980076,0.927386 -0.5663556,1.262492 -0.2747037,0.335814 -0.6984111,0.6107 -1.2711223,0.826075 -0.5783607,0.221751 -1.324792,0.329438 -2.2435309,0.329438 -0.930744,0 -1.74285,-0.125399 -2.4469105,-0.383282 C 2.0281463,10.78715 1.4858008,10.422288 1.1157629,9.9433632 0.74572509,9.4644381 0.47737705,8.8416938 0.31071879,8.0637948 L 2.1001765,7.817956 c 0.197024,0.7722313 0.5013872,1.317044 0.906734,1.6223942 0.4117024,0.3053501 1.0444388,0.4548371 1.9095082,0.4548371 0.9194451,0 1.6107944,-0.2097068 2.0761664,-0.6284121 0.3467339,-0.3053501 0.5197478,-0.8381188 0.5197478,-1.5926384 0,-0.071555 0,-0.2330863 -0.00636,-0.4845928 C 6.8082724,6.9380375 5.722169,6.7283306 4.2420176,6.5490879 3.5195965,6.4591124 2.977251,6.3698453 2.6192182,6.2734935 2.1305422,6.1360505 1.6948298,5.9320114 1.3007818,5.6635016 0.91308953,5.3935749 0.59672131,5.0407573 0.35803279,4.5972557 0.11934426,4.1544625 0,3.6634935 0,3.1307248 0,2.2146743 0.31566204,1.4665309 0.9547541,0.87991857 1.5867844,0.29330619 2.4998739,0 3.6876671,0 4.4030265,0 5.0717781,0.11973127 5.6981589,0.35919381 6.3245397,0.59865635 6.9812862,1.0116938 7.6549811,1.5983062 7.7086507,1.0839577 7.8343506,0.62912052 8.0193695,0.24583876 H 9.9288777 C 9.701488,0.66454397 9.5468348,1.1016694 9.4691551,1.5621743"
           id="path4359"
           fill="#d73f3f"
           fill-rule="nonzero"
           style="fill:#525158;fill-opacity:1" />
      </g>
      <g
         id="g4361"
         stroke-width="1"
         fill="none"
         fill-rule="evenodd"
         transform="translate(258.861,21.9446)"
         style="fill:#525158;fill-opacity:1">
        <path
           d="M 6.6232535,6.512956 C 6.0441866,5.8186564 5.3521311,5.4715065 4.5407314,5.4715065 c -0.7993947,0 -1.4801513,0.3351059 -2.0408575,1.0053176 C 1.9328121,7.153412 1.652459,8.1891938 1.652459,9.5962134 c 0,1.4063106 0.3050694,2.4838926 0.9010845,3.2199916 0.5967213,0.736808 1.2887768,1.107337 2.0648676,1.107337 0.7873897,0 1.4610845,-0.347149 2.0281463,-1.041449 0.5670618,-0.6943 0.8474149,-1.735749 0.8474149,-3.1307249 0,-1.4601547 -0.2923582,-2.5377362 -0.8707188,-3.2384121 m 2.2011601,6.106295 c -0.3580328,0.87921 -0.8890794,1.555798 -1.59314,2.034723 -0.7040605,0.478925 -1.5147541,0.718388 -2.4405548,0.718388 -0.7033544,0 -1.3007818,-0.137443 -1.7958134,-0.413038 -0.4950315,-0.281262 -0.9363934,-0.6943 -1.3297352,-1.251156 v 1.419063 H 0 V 0 H 1.8254729 V 5.3220195 C 2.1361917,4.9266938 2.535889,4.5972557 3.0189155,4.3344137 3.5026482,4.0765309 4.0513493,3.9447557 4.6600757,3.9447557 c 0.8347036,0 1.6284489,0.2394625 2.3805296,0.7127199 0.7577301,0.478925 1.3311475,1.1668485 1.7301387,2.0651873 0.3940479,0.8919625 0.5910719,1.9036563 0.5910719,3.0166612 0,1.0478259 -0.1793695,2.0056759 -0.5374023,2.8799269"
           id="path4363"
           fill="#d73f3f"
           fill-rule="nonzero"
           style="fill:#525158;fill-opacity:1" />
      </g>
      <g
         id="g4365"
         stroke-width="1"
         fill="none"
         fill-rule="evenodd"
         transform="translate(123.1408,0.2458)"
         style="fill:#525158;fill-opacity:1">
        <polygon
           id="path4367"
           fill="#d73f3f"
           fill-rule="nonzero"
           points="4.9044136,0 4.9044136,13.319218 2.6317218e-14,13.319218 2.6317218e-14,15.097476 11.802371,15.097476 11.802371,13.319218 6.873947,13.319218 6.873947,0 "
           style="fill:#525158;fill-opacity:1" />
      </g>
      <g
         id="g4369"
         stroke-width="1"
         fill="none"
         fill-rule="evenodd"
         transform="translate(136.1303)"
         style="fill:#525158;fill-opacity:1">
        <path
           d="M 1.9928373,6.7644625 C 2.0521564,7.7223127 2.3692308,8.4825 2.941942,9.0514007 c 0.5727112,0.5689006 1.2767717,0.8558306 2.117831,0.8558306 0.9250946,0 1.6828247,-0.3591938 2.2611854,-1.0712052 C 7.7030013,8.3748127 7.9296847,7.6861808 8.0130139,6.7644625 Z M 9.9408827,5.735057 c 0,1.808013 -0.4533669,3.2086564 -1.3664565,4.2026384 -0.9187389,0.9932736 -2.0945271,1.4899106 -3.5379571,1.4899106 -1.4858007,0 -2.7032535,-0.502305 -3.6339975,-1.5203747 C 0.46537201,8.8898697 0,7.4651384 0,5.6209935 0,3.8434446 0.45972257,2.460513 1.384111,1.4792834 2.3092056,0.49096906 3.5619672,0 5.1374527,0 6.3909205,0 7.4226482,0.31172638 8.2283985,0.92809446 9.0341488,1.5444625 9.5828499,2.4123371 9.8808575,3.5324267 L 7.9953594,3.7711808 C 7.7150063,2.9869055 7.339319,2.4187134 6.8675914,2.0595195 6.3909205,1.7003257 5.8175031,1.5267508 5.1494578,1.5267508 c -0.9010845,0 -1.6531652,0.3173941 -2.255536,0.9578502 C 2.2915511,3.1186808 1.9575284,4.0411075 1.8911475,5.2440879 h 8.0433796 c 0.00636,0.2153746 0.00636,0.3832818 0.00636,0.4909691"
           id="path4371"
           fill="#d73f3f"
           fill-rule="nonzero"
           style="fill:#525158;fill-opacity:1" />
      </g>
      <g
         id="g4373"
         stroke-width="1"
         fill="none"
         fill-rule="evenodd"
         transform="translate(147.6997,2e-4)"
         style="fill:#525158;fill-opacity:1">
        <path
           d="m 7.5003279,5.0584691 c 0,-0.8204072 -0.095334,-1.4367753 -0.2923582,-1.856189 C 6.9516267,2.6581759 6.5455738,2.2330945 6.0025221,1.9213681 5.4538209,1.6103502 4.8274401,1.4488192 4.1233796,1.4488192 c -0.7104162,0 -1.2534679,0.1679072 -1.6235057,0.4966368 -0.3693317,0.3294381 -0.5543506,0.7424756 -0.5543506,1.2334447 0,0.3230618 0.089685,0.616368 0.256343,0.8855863 0.1673645,0.2635505 0.4117024,0.4612133 0.7224212,0.5986563 0.3100126,0.1381515 0.8410593,0.2635505 1.5924338,0.3712378 1.3247919,0.1912867 2.3219168,0.4250814 2.9836066,0.7006759 z M 9.4698613,1.5621743 C 9.3921816,2.0177199 9.350517,3.1066368 9.350517,4.8310505 V 7.302899 c 0,0.8204072 -0.030366,1.3885994 -0.089685,1.706702 -0.1073392,0.5079723 -0.2987138,0.927386 -0.5670618,1.262492 -0.2747037,0.335814 -0.6977049,0.6107 -1.2711223,0.826075 -0.5783607,0.221751 -1.3240858,0.329438 -2.2435309,0.329438 -0.9300379,0 -1.7477932,-0.125399 -2.4518537,-0.383282 C 2.023203,10.78715 1.4858008,10.42158 1.1157629,9.9433632 0.74007566,9.4644381 0.47737705,8.8416938 0.31071879,8.0630863 L 2.1008827,7.817956 c 0.1963178,0.7722313 0.500681,1.317044 0.906734,1.6223942 0.4117023,0.3053501 1.0444388,0.4548371 1.9031525,0.4548371 0.9250946,0 1.6171501,-0.2097068 2.0825221,-0.6284121 0.3460277,-0.3053501 0.5190416,-0.8381188 0.5190416,-1.5926384 0,-0.071555 0,-0.2330863 -0.012005,-0.4845928 C 6.8082724,6.9380375 5.7165195,6.7283306 4.2427238,6.5490879 3.5203027,6.4591124 2.9779571,6.3691368 2.6192182,6.2734935 2.1305422,6.1360505 1.6948298,5.9320114 1.3007818,5.6627932 0.91308953,5.3935749 0.59672131,5.0407573 0.35803279,4.5972557 0.11934426,4.1544625 0,3.6634935 0,3.1307248 0,2.2146743 0.31636822,1.4665309 0.9547541,0.87991857 1.5874905,0.29330619 2.4998739,0 3.6820177,0 4.4037327,0 5.0724842,0.11973127 5.6981589,0.35919381 6.3245397,0.59865635 6.9812862,1.0116938 7.6556873,1.5983062 7.7093569,1.0839577 7.8287011,0.62841205 8.0193695,0.24583876 H 9.9288777 C 9.7021942,0.66454397 9.5468348,1.1016694 9.4698613,1.5621743"
           id="path4375"
           fill="#d73f3f"
           fill-rule="nonzero"
           style="fill:#525158;fill-opacity:1" />
      </g>
      <g
         id="g4377"
         stroke-width="1"
         fill="none"
         fill-rule="evenodd"
         transform="translate(159.896,0.2458)"
         style="fill:#525158;fill-opacity:1">
        <path
           d="M 0,0 V 10.936637 H 1.6348045 V 9.4042182 c 0.3403783,0.5327688 0.7873897,0.9635178 1.3488021,1.2929558 0.5607061,0.323062 1.2054476,0.484593 1.920807,0.484593 0.8001009,0 1.4561412,-0.167199 1.9631778,-0.502304 0.5133922,-0.335106 0.871425,-0.8083636 1.0797478,-1.4126878 0.8537705,1.2809118 1.9695334,1.9149918 3.3359898,1.9149918 1.067743,0 1.891148,-0.298974 2.463859,-0.89763 0.579067,-0.5986565 0.865069,-1.526751 0.865069,-2.7771989 V 0 h -1.819823 v 6.8898616 c 0,0.7424755 -0.05932,1.2752443 -0.172308,1.6046824 -0.12005,0.3230619 -0.334729,0.5866124 -0.651097,0.7842752 -0.310013,0.1969544 -0.673695,0.298974 -1.091753,0.298974 -0.75773,0 -1.3897602,-0.2571743 -1.8911474,-0.7658551 C 8.4847415,8.2968811 8.2340479,7.4828502 8.2340479,6.3570928 V 0 H 6.408575 v 7.1052362 c 0,0.8260749 -0.1497099,1.4431514 -0.4477175,1.8561889 -0.2980076,0.4130374 -0.7873897,0.6163681 -1.4617907,0.6163681 -0.5133921,0 -0.9907692,-0.137443 -1.4257755,-0.4130375 C 2.6312232,8.8891612 2.314855,8.4881678 2.1241866,7.9617752 1.9271627,7.4346743 1.8254729,6.6688192 1.8254729,5.6748371 V 0 Z"
           id="path4379"
           fill="#d73f3f"
           fill-rule="nonzero"
           style="fill:#525158;fill-opacity:1" />
      </g>
      <g
         id="g4381"
         stroke-width="1"
         fill="none"
         fill-rule="evenodd"
         transform="translate(51.1107,25.1882)"
         style="fill:#525158;fill-opacity:1">
        <path
           d="m 2.7950568,4.1006189 c 0,-0.5788192 0.3191929,-1.0102769 0.7090037,-1.2837459 0.3898109,-0.2770114 0.8502396,-0.4222476 1.3805801,-0.4222476 0.5296343,0 0.9921816,0.1452362 1.3812863,0.4222476 0.3883984,0.273469 0.6094325,0.7049267 0.6094325,1.2837459 v 8.8771171 c 0,0.580945 -0.2210341,1.011694 -0.6094325,1.285872 -0.3891047,0.274886 -0.851652,0.459796 -1.3812863,0.459796 -0.5303405,0 -0.9907692,-0.18491 -1.3805801,-0.459796 C 3.1142497,13.98943 2.7950568,13.558681 2.7950568,12.977736 Z M 0,12.982695 c 0,0.674463 0.14264817,1.275953 0.42653216,1.79597 0.2831778,0.520724 0.65957124,0.945806 1.12494324,1.285162 0.4639597,0.33794 0.985826,0.594406 1.5670114,0.766564 0.5783606,0.171449 1.1616645,0.258591 1.7499117,0.258591 0.5868348,0 1.1708449,-0.08714 1.7520303,-0.258591 0.5776544,-0.172158 1.1002269,-0.428624 1.5634804,-0.766564 0.4674906,-0.339356 0.8410593,-0.764438 1.1263556,-1.285162 0.2860025,-0.520017 0.4272384,-1.121507 0.4272384,-1.79597 V 4.1048697 c 0,-0.6893404 -0.1412359,-1.292956 -0.4272384,-1.8044707 C 9.0249685,1.786759 8.6513998,1.3638029 8.1839092,1.0251547 7.7206557,0.68579805 7.1980832,0.42791531 6.6204288,0.25788274 6.0392434,0.08572476 5.4552333,0 4.8683985,0 4.2801513,0 3.6968474,0.08572476 3.1184868,0.25788274 2.5373014,0.42791531 2.0154351,0.68579805 1.5514754,1.0251547 1.0861034,1.3638029 0.70970996,1.786759 0.42653216,2.300399 0.14264817,2.8119137 0,3.4155293 0,4.1048697 Z"
           id="path4383"
           fill="#d73f3f"
           fill-rule="nonzero"
           style="fill:#525158;fill-opacity:1" />
      </g>
      <g
         id="g4385"
         stroke-width="1"
         fill="none"
         fill-rule="evenodd"
         transform="translate(39.1797,25.1734)"
         style="fill:#525158;fill-opacity:1">
        <polygon
           id="path4387"
           fill="#d73f3f"
           fill-rule="nonzero"
           points="6.8901892,7.212215 6.8901892,0 9.512232,0 9.512232,17.115904 6.8901892,17.115904 6.8901892,9.9058143 2.4356116,9.9058143 2.4356116,17.115904 0,17.115904 0,0 2.4356116,0 2.4356116,7.212215 "
           style="fill:#525158;fill-opacity:1" />
      </g>
      <g
         id="g4389"
         stroke-width="1"
         fill="none"
         fill-rule="evenodd"
         transform="translate(62.7002,25.1734)"
         style="fill:#525158;fill-opacity:1">
        <polygon
           id="path4391"
           fill="#d73f3f"
           fill-rule="nonzero"
           points="9.6682976,17.115904 0,17.115904 0,14.598713 3.5732661,14.598713 3.5316015,0 6.1020933,0 6.1020933,14.598713 9.6682976,14.598713 "
           style="fill:#525158;fill-opacity:1" />
      </g>
      <g
         id="g4393"
         stroke-width="1"
         fill="none"
         fill-rule="evenodd"
         transform="translate(0,0.2351)"
         style="fill:#525158;fill-opacity:1">
        <path
           d="m 54.990164,11.216482 c -13.141993,0 -23.79541,9.949031 -23.79541,22.220424 0,12.274934 10.653417,22.223257 23.79541,22.223257 13.141286,0 23.79541,-9.948323 23.79541,-22.223257 0,-12.271393 -10.654124,-22.220424 -23.79541,-22.220424 M 90.301236,26.797134 H 109.97962 L 98.213266,40.170195 86.499168,53.543257 74.785069,66.876645 H 15.927163 L 27.641261,53.543257 H 7.9197982 l 11.7155108,-13.373062 0.0911,-0.08998 H 0 L 11.762119,26.707158 23.482572,13.334096 35.196671,0 h 58.857907 l -11.720454,13.334096 -0.08615,0.128942 h 19.724286 z"
           id="path4395"
           fill="#d73f3f"
           fill-rule="nonzero"
           style="fill:#525158;fill-opacity:1" />
      </g>
    </g>
  </g>
</svg>
